<?xml version="1.0" standalone="no"?>
<!DOCTYPE svg PUBLIC "-//W3C//DTD SVG 20010904//EN"
 "http://www.w3.org/TR/2001/REC-SVG-20010904/DTD/svg10.dtd">
<svg version="1.0" xmlns="http://www.w3.org/2000/svg"
 width="20pt" height="20pt" viewBox="0 0 980.000000 870.000000"
 preserveAspectRatio="xMidYMid meet">

<g transform="translate(0.000000,870.000000) scale(0.100000,-0.100000)"
fill="#000000" stroke="none">
<path fill="#8a94a6" d="M3265 8694 c-16 -2 -70 -9 -120 -15 -204 -25 -440 -100 -655 -210
-571 -290 -1010 -841 -1206 -1513 -157 -543 -136 -1172 58 -1706 206 -568 605
-1039 1103 -1305 267 -143 367 -273 336 -439 -20 -110 -53 -133 -268 -196
-378 -109 -796 -309 -1118 -535 -166 -116 -286 -215 -434 -360 -631 -613 -960
-1385 -961 -2252 l0 -163 3640 0 3640 0 0 193 c0 210 -17 394 -55 582 -164
817 -678 1559 -1426 2057 -328 219 -754 410 -1113 499 -66 16 -148 37 -182 45
-33 8 -85 28 -116 43 -118 60 -174 126 -185 220 -12 103 45 167 319 364 187
134 309 238 416 356 329 361 554 777 666 1231 48 196 66 323 73 525 25 732
-247 1443 -743 1939 -331 331 -722 538 -1163 617 -111 19 -427 34 -506 23z
m420 -420 c494 -80 923 -369 1228 -829 83 -126 198 -363 245 -509 81 -248 116
-471 116 -741 0 -357 -73 -658 -240 -995 -167 -336 -408 -627 -680 -819 -219
-155 -302 -221 -377 -300 -132 -141 -183 -274 -174 -456 6 -127 34 -215 102
-315 117 -172 311 -286 597 -351 621 -140 1240 -499 1656 -962 382 -426 616
-908 693 -1431 10 -72 19 -139 19 -148 0 -17 -160 -18 -3224 -18 -1774 0
-3227 4 -3230 8 -3 5 2 60 10 123 72 552 333 1090 733 1512 167 176 374 345
596 487 230 148 625 324 894 399 207 58 343 139 426 255 55 78 80 135 100 230
47 228 -18 452 -181 625 -91 97 -175 160 -314 236 -207 114 -337 212 -491 372
-560 578 -753 1478 -488 2286 48 149 162 385 246 512 413 623 1071 937 1738
829z"/>
<path fill="#9ba5b7" d="M6577 6644 c-15 -5 -17 -13 -13 -42 3 -21 13 -98 21 -172 9 -74 18
-146 21 -160 l4 -25 173 0 c185 0 267 -12 414 -61 601 -202 1022 -857 990
-1543 -7 -151 -27 -259 -74 -406 -93 -291 -275 -576 -490 -767 -34 -30 -110
-88 -169 -129 -268 -184 -374 -337 -374 -539 0 -283 207 -494 562 -571 333
-73 698 -251 983 -482 104 -84 284 -270 364 -375 135 -178 241 -379 310 -587
41 -123 81 -299 81 -354 l0 -31 -605 0 -605 0 0 -200 0 -200 816 0 817 0 -6
218 c-6 223 -24 371 -67 537 -82 320 -251 652 -467 920 -99 123 -287 310 -408
406 -321 255 -764 468 -1130 544 -91 19 -188 67 -217 108 -14 19 -23 46 -23
69 0 50 43 94 210 213 157 112 257 199 348 303 487 551 662 1249 481 1922
-170 632 -624 1135 -1194 1324 -192 64 -281 78 -520 81 -118 2 -223 1 -233 -1z"/>
</g>
</svg>
